<?xml version="1.0" standalone="no"?>
<!DOCTYPE svg PUBLIC "-//W3C//DTD SVG 20010904//EN"
 "http://www.w3.org/TR/2001/REC-SVG-20010904/DTD/svg10.dtd">
<svg version="1.0" xmlns="http://www.w3.org/2000/svg"
 width="700.000000pt" height="700.000000pt" viewBox="0 0 700.000000 700.000000"
 preserveAspectRatio="xMidYMid meet">
<metadata>
Created by potrace 1.11, written by Peter Selinger 2001-2013
</metadata>
<g transform="translate(0.000000,700.000000) scale(0.100000,-0.100000)"
fill="#000000" stroke="none">
<path d="M1873 5707 c-143 -108 -216 -171 -332 -287 -399 -398 -647 -830 -775
-1350 -25 -103 -31 -131 -42 -200 -3 -19 -7 -46 -10 -60 -8 -49 -18 -227 -18
-345 -1 -178 16 -335 54 -500 7 -27 13 -57 15 -65 2 -8 17 -62 34 -120 140
-481 395 -900 768 -1263 128 -124 202 -186 338 -288 l93 -68 78 0 79 0 88 85
c48 46 87 87 87 91 0 5 -14 24 -31 43 -347 405 -595 889 -703 1371 -14 63 -28
130 -31 149 -3 19 -7 46 -10 60 -3 14 -7 45 -10 70 -3 25 -8 61 -10 80 -26
198 -20 711 10 797 2 6 7 38 10 70 6 46 50 267 69 343 124 487 350 932 633
1247 l62 69 -82 82 -82 82 -80 0 -80 -1 -122 -92z m155 -58 l34 -31 -34 -37
c-18 -19 -36 -38 -39 -41 -3 -3 -38 -45 -77 -95 -40 -49 -76 -95 -81 -101 -64
-78 -204 -300 -277 -441 -84 -160 -207 -470 -228 -573 -3 -14 -10 -41 -15 -60
-15 -48 -59 -277 -67 -342 -3 -29 -8 -64 -10 -78 -9 -55 -18 -233 -18 -370 0
-130 11 -327 19 -340 2 -3 6 -30 10 -60 4 -30 8 -57 10 -60 2 -3 6 -27 10 -55
3 -27 26 -126 50 -220 148 -577 375 -1019 687 -1342 l60 -62 -33 -31 c-19 -16
-36 -30 -40 -30 -10 0 -117 78 -209 152 -123 98 -335 316 -446 458 -141 179
-317 500 -402 735 -40 109 -115 398 -127 485 -27 207 -27 567 0 711 3 13 7 35
10 49 2 14 7 40 10 58 20 122 77 324 132 467 194 502 533 931 998 1263 17 12
32 21 35 22 3 0 20 -14 38 -31z"/>
<path d="M4300 5509 c-167 -59 -432 -129 -548 -145 -24 -3 -51 -7 -60 -9 -9
-2 -25 -4 -35 -4 -24 -1 -38 -43 -41 -121 -3 -57 8 -137 19 -148 4 -5 11 -6
130 -17 100 -9 152 -18 221 -36 l41 -11 2 -402 2 -403 -193 1 c-106 1 -226 -3
-266 -7 -148 -16 -329 -83 -460 -171 -279 -186 -465 -576 -466 -976 0 -162 8
-254 33 -345 6 -22 12 -49 14 -60 10 -50 65 -178 106 -245 104 -172 265 -295
451 -346 70 -19 311 -25 420 -11 90 11 207 45 287 83 l74 35 20 -26 c42 -53
39 -52 537 -52 l463 0 16 31 c24 47 28 137 8 190 -18 47 -19 47 -110 61 -72
12 -162 45 -185 70 -21 22 -23 35 -26 147 -6 241 -14 1404 -14 2100 l-1 706
-34 31 c-44 38 -80 57 -153 80 -105 34 -157 33 -252 0z m107 -103 l29 -25 3
-973 c2 -987 9 -1821 15 -1914 5 -67 27 -97 99 -129 60 -28 200 -60 297 -70
91 -9 124 -15 133 -24 5 -5 7 -26 5 -47 l-3 -39 -125 2 c-229 3 -494 2 -545
-1 -166 -11 -167 -11 -191 20 -22 27 -23 35 -19 148 l5 119 -27 -24 c-15 -13
-36 -33 -47 -45 -71 -70 -224 -169 -326 -211 -123 -51 -158 -58 -280 -58 -134
0 -200 17 -289 76 -237 155 -364 443 -365 829 -1 258 69 494 209 710 160 247
449 388 774 376 128 -5 146 -8 273 -40 l87 -23 -3 505 -2 505 -43 19 c-23 10
-68 24 -99 32 -54 14 -78 17 -212 31 -30 3 -56 8 -58 9 -5 6 -5 87 1 92 3 3
49 12 102 19 174 25 404 87 495 135 47 26 73 25 107 -4z"/>
<path d="M3570 3974 c-88 -24 -139 -55 -215 -129 -49 -48 -80 -90 -102 -135
-45 -95 -84 -247 -98 -380 -6 -62 -6 -312 0 -350 2 -14 7 -43 10 -65 12 -73
65 -222 101 -281 88 -147 223 -225 388 -225 140 0 269 58 411 184 l49 44 3
547 3 546 -26 42 c-103 162 -338 253 -524 202z m300 -121 c30 -15 79 -51 108
-81 l53 -54 -2 -523 -1 -523 -37 -31 c-77 -64 -149 -106 -215 -125 -83 -25
-198 40 -273 152 -40 62 -84 181 -100 272 -16 91 -8 431 12 515 2 11 10 43 16
70 35 154 153 307 272 352 43 16 100 8 167 -24z"/>
<path d="M5785 4198 c-266 -56 -371 -387 -186 -586 81 -87 152 -114 296 -113
153 2 226 15 313 58 100 49 149 136 156 274 8 177 -67 285 -235 342 -80 27
-268 41 -344 25z m178 -106 c173 -77 213 -294 78 -429 -139 -140 -381 -78
-437 112 -63 218 153 408 359 317z"/>
<path d="M5763 2734 c-125 -33 -218 -129 -248 -259 -43 -180 59 -358 239 -418
39 -14 76 -16 175 -13 202 7 324 53 382 144 40 63 51 111 52 213 0 72 -5 96
-26 143 -44 96 -134 161 -260 186 -90 18 -254 20 -314 4z m197 -97 c136 -65
197 -215 140 -344 -54 -122 -189 -188 -312 -154 -110 31 -202 151 -197 258 7
147 132 266 273 259 34 -1 77 -10 96 -19z"/>
</g>
</svg>
